<svg xmlns="http://www.w3.org/2000/svg" xmlns:xlink="http://www.w3.org/1999/xlink" viewBox="0 0 5000 3000"><defs><path id="a" d="M725.6171875 821.5c-32.269043-70.8891602-52.1806641-148.5913086-56.9750977-230.3579102C750.4082031 595.9365234 828.1108398 615.8481445 899 648.1171875v-191.234375c-70.8891602 32.269043-148.5917969 52.1806641-230.3579102 56.9750977 4.7944336-81.7666016 24.7060547-159.46875 56.9750977-230.3579102h-191.234375c32.269043 70.8891602 52.1806641 148.5913086 56.9750977 230.3579102C509.5917969 509.0634766 431.8891602 489.1518555 361 456.8828125v191.234375c70.8891602-32.269043 148.5917969-52.1806641 230.3579102-56.9750977-4.7944336 81.7666016-24.706543 159.46875-56.9750977 230.3579102h191.234375z"/></defs><defs><g id="c"><path id="b" d="M1974.24621202 831.78409178L1603.0151519 1203.0151519l424.2640687 424.2640687"/><use transform="rotate(90 1900 1500)" xlink:href="#b"/><use transform="rotate(180 1900 1500)" xlink:href="#b"/><use transform="rotate(270 1900 1500)" xlink:href="#b"/></g></defs><defs><g id="e" fill="#fff"><path d="M0 1125h5000v750H0z"/><path d="M1525 0h750v3000h-750z"/><circle cx="1900" cy="1500" r="1000"/></g><g id="f"><path d="M0 1200h5000v600H0z"/><path d="M1600 0h600v3000h-600z"/><circle cx="1900" cy="1500" r="925"/></g><g id="i" fill="#fff"><circle cx="1900" cy="1500" r="850"/><circle cx="1900" cy="1500" r="782" stroke="#000" stroke-width="46"/></g><g id="h"><path id="d" fill="none" stroke="#fff" stroke-width="76" stroke-miterlimit="0" d="M-248 1310h5500v376H-248z"/><use transform="rotate(90 1900 1500)" xlink:href="#d"/></g><g id="g"><use xlink:href="#e"/><use xlink:href="#f"/></g></defs><path fill="#5a8d3e" d="M0 0h5000v3000H0z"/><use width="100%" height="100%" xlink:href="#g"/><use width="100%" height="100%" xlink:href="#h"/><use width="100%" height="100%" fill="#ff6464" xlink:href="#i"/><path d="M228.3162 280.65c-12.6196-88.2598 86.2326-118.0561 86.2326-118.0561 137.749-37.1278 187.5568 136.4304 187.5568 136.4304 19.2407 81.4341 20.3063 110.7709 20.3063 110.7709-2.5861 42.6264-41.7847 50.2483-41.7847 50.2483-164.7793 54.4425-246.8061-13.0662-246.8061-13.0662-110.7807-86.98-5.5049-166.3273-5.5049-166.3273z"/><path fill="#fff" d="M279.5428 295.0351c-56.3034-52.2206 40.4167-93.731 40.4167-93.731 85.1538-23.4469 127.4685 60.1289 127.4685 60.1289 32.1263 41.3446 38.2642 148.4604 37.2662 149.0148-3.7579 8.593-20.3572 15.157-20.3572 15.157-131.2022 47.1793-210.4229-11.6925-210.4229-11.6925-94.0682-67.0871 25.6287-118.8772 25.6287-118.8772z"/><path d="M814.1418 184.4174c62.3671-13.687 93.7447 61.7768 93.7447 61.7768 71.6587 140.6487-73.2174 216.0308-73.2174 216.0308-49.3357 30.9344-134.272 39.4959-134.272 39.4959-31.2865 6.2892-50.8267-24.1973-50.8267-24.1973-65.7792-194.9938 6.2262-283.1318 6.2262-283.1318 72.8449-125.7048 158.3452-9.9744 158.3452-9.9744z"/><path fill="#fff" d="M795.96 242.6461c63.2361-71.774 90.258 57.057 90.258 57.057 17.5494 108.1856-104.9132 144.05-104.9132 144.05-35.18 16.404-86.7477 19.7948-86.7477 19.7948-13.5354.6947-16.7689-24.6772-16.7689-24.6772-41.4304-122.815 5.3734-224.0597 5.3734-224.0597C756.6265 110.9564 795.96 242.6461 795.96 242.6461z"/><path d="M311.5891 909.8378c-62.3671 13.687-93.7447-61.7768-93.7447-61.7768-71.6587-140.6487 73.2174-216.0308 73.2174-216.0308 49.3357-30.9344 134.272-39.4959 134.272-39.4959 31.2865-6.2892 50.8267 24.1973 50.8267 24.1973 65.7792 194.9938-6.2262 283.1318-6.2262 283.1318-72.8449 125.7048-158.3452 9.9744-158.3452 9.9744z"/><path fill="#fff" d="M329.7709 851.6091c-63.2361 71.774-90.258-57.057-90.258-57.057-17.5494-108.1856 104.9132-144.05 104.9132-144.05 35.18-16.404 86.7477-19.7948 86.7477-19.7948 13.5354-.6947 16.7689 24.6772 16.7689 24.6772 41.4304 122.815-5.3734 224.0597-5.3734 224.0597-73.4649 103.8546-112.7984-27.8351-112.7984-27.8351z"/><path d="M900.1621 815.8521c12.6196 88.2598-86.2326 118.0561-86.2326 118.0561-137.749 37.1278-187.5568-136.4304-187.5568-136.4304-19.2407-81.4341-20.3063-110.7709-20.3063-110.7709 2.5861-42.6264 41.7847-50.2483 41.7847-50.2483 164.7793-54.4425 246.8061 13.0662 246.8061 13.0662 110.7807 86.98 5.5049 166.3273 5.5049 166.3273z"/><path fill="#fff" d="M848.9355 801.467c56.3034 52.2206-40.4167 93.731-40.4167 93.731-85.1538 23.4469-127.4685-60.1289-127.4685-60.1289-32.1263-41.3446-38.2642-148.4604-37.2662-149.0148 3.7579-8.593 20.3572-15.157 20.3572-15.157 131.2022-47.1793 210.4229 11.6925 210.4229 11.6925 94.0682 67.0871-25.6287 118.8772-25.6287 118.8772z"/><path d="M1673.3399 890.00001l.088 112.26559 184.004 161.7676s-21.407.8399-100.3028.8399H1657.5V1260h485v-95.1269h-100.8886c-78.8959 0-100.3028-.8399-100.3028-.8399s120.7965-100.641 171.2207-151.5235c4.8188-4.8465 10.2734-15.75188 10.2734-15.75188l.098-104.89256-4.4629 4.95115-208.789 176.72849-10.2344 7.5879zM1542.8809 1260v98.6035c0 78.0823-.8301 99.2676-.8301 99.2676l-145.6738-196.3379-111.6699-.088 174.8828 237.9786-7.5489 10.1269-164.6191 225.957-4.9219 4.4043 104.3261-.088s10.8531-5.4066 15.6739-10.1757c50.6119-49.9043 139.5508-188.7696 139.5508-188.7696s.8301 21.1951.8301 99.2774V1740H1637.5v-480zm619.6191 0v480h94.6192v-99.8437c0-78.0823.83-99.2774.83-99.2774s88.9388 138.8653 139.5508 188.7696c4.8208 4.7691 15.6739 10.1757 15.6739 10.1757l104.3261.088-4.9219-4.4043-164.6191-225.957-7.5489-10.1269 174.8829-237.9786-111.6699.088-145.6739 196.3379s-.83-21.1853-.83-99.2676V1260zm-490 48.8184V1695h94.3652v-386.1816zm177.5 0V1695h94.3652v-386.1816zm177.5 0V1695h94.3652v-386.1816zM1657.5 1740v95.127h99.6289c78.8958 0 100.3028.8398 100.3028.8398l-184.004 161.7676-.088 112.2656 226.0742-191.1328 10.2344 7.5879 208.789 176.7285 4.4629 4.9512-.098-104.8926s-5.4546-10.9053-10.2734-15.752c-50.4242-50.8823-171.2207-151.5234-171.2207-151.5234s21.4069-.8398 100.3028-.8398H2142.5V1740h-243.125z"/></svg>